FFmpeg version SVN-r25716, Copyright (c) 2000-2010 the FFmpeg developers  built on Nov 10 2010 12:23:18 with gcc 4.1.2 20080704 (Red Hat 4.1.2-48)  configuration: --enable-libmp3lame --enable-shared --disable-mmx --arch=x86_64  libavutil     50.33. 0 / 50.33. 0  libavcore      0.12. 1 /  0.12. 1  libavcodec    52.94. 4 / 52.94. 4  libavformat   52.84. 0 / 52.84. 0  libavdevice   52. 2. 2 / 52. 2. 2  libavfilter    1.59. 0 /  1.59. 0  libswscale     0.12. 0 /  0.12. 0Input #0, avi, from '/RAID10/data/converted_video_files/11961.avi':  Duration: 00:00:16.61, start: 0.000000, bitrate: 3983 kb/s    Stream #0.0: Video: mpeg4, yuv420p, 704x480 [PAR 1:1 DAR 22:15], 25 tbr, 29.97 tbn, 25 tbc    Stream #0.1: Audio: ac3, 48000 Hz, stereo, s16, 256 kb/s[buffer @ 0x91ee9a0] w:704 h:480 pixfmt:yuv420pOutput #0, flv, to '/RAID10/data/converted_video_files/11961.flv':  Metadata:    encoder         : Lavf52.84.0    Stream #0.0: Video: flv, yuv420p, 704x480 [PAR 1:1 DAR 22:15], q=2-31, 600 kb/s, 1k tbn, 24 tbc    Stream #0.1: Audio: libmp3lame, 22050 Hz, stereo, s16, 96 kb/sStream mapping:  Stream #0.0 -> #0.0  Stream #0.1 -> #0.1Press [q] to stop encodingframe=    1 fps=  1 q=4.1 size=      32kB time=0.08 bitrate=3143.4kbits/s    frame=   36 fps= 20 q=10.3 size=     269kB time=1.54 bitrate=1429.3kbits/s dup=0 drop=9    frame=   73 fps= 31 q=8.0 size=     427kB time=3.08 bitrate=1135.1kbits/s dup=0 drop=18    frame=  113 fps= 40 q=9.7 size=     569kB time=4.75 bitrate= 981.4kbits/s dup=0 drop=28    frame=  154 fps= 46 q=9.0 size=     712kB time=6.46 bitrate= 903.5kbits/s dup=0 drop=38    frame=  196 fps= 51 q=8.9 size=     877kB time=8.21 bitrate= 875.3kbits/s dup=0 drop=49    frame=  237 fps= 54 q=9.1 size=    1022kB time=9.92 bitrate= 844.0kbits/s dup=0 drop=59    frame=  279 fps= 57 q=9.8 size=    1185kB time=11.67 bitrate= 831.9kbits/s dup=0 drop=69    frame=  321 fps= 60 q=9.6 size=    1330kB time=13.42 bitrate= 811.8kbits/s dup=0 drop=80    frame=  363 fps= 62 q=9.1 size=    1489kB time=15.17 bitrate= 804.2kbits/s dup=0 drop=90    frame=  399 fps= 63 q=8.6 Lsize=    1618kB time=16.67 bitrate= 795.4kbits/s dup=0 drop=99    video:1406kB audio:195kB global headers:0kB muxing overhead 1.031045%